<svg id="Layer_1" data-name="Layer 1" xmlns="http://www.w3.org/2000/svg" viewBox="0 0 283.46 167.24"><defs><style>.cls-1{fill:#de2516;}.cls-2{fill:#fbbe00;}.cls-3{fill:#17af9d;}.cls-4{fill:#00569c;}.cls-5{fill:#1c1c1a;}</style></defs><path class="cls-1" d="M113,235.67a3,3,0,0,0-3,3v27.92a3,3,0,0,0,3,3h52a3,3,0,0,0,3-3V238.66a3,3,0,0,0-3-3Z" transform="translate(-110 -169)"/><path class="cls-2" d="M210.58,172a3,3,0,0,0-3-3H179.66a3,3,0,0,0-3,3v52a3,3,0,0,0,3,3h27.93a3,3,0,0,0,3-3V172Z" transform="translate(-110 -169)"/><path class="cls-3" d="M210.58,281.27a3,3,0,0,0-3-3H179.66a3,3,0,0,0-3,3v52a3,3,0,0,0,3,3h27.93a3,3,0,0,0,3-3v-52Z" transform="translate(-110 -169)"/><path class="cls-4" d="M176.67,235.67v33.91h7.45V255h19v14.63h7.46V235.67h-7.46v13h-19v-13Zm41,0v33.91H243.4v-6.27H225.12V255h16.43v-5.8H225.12v-7.27H243v-6.26Zm40,0-12.87,33.91h7.55L255,262h12.68l2.57,7.55H278l-12.68-33.91Zm3.8,8.35,4.27,12.45H257L261.4,244ZM281,235.67v33.91h24v-6.27H288.43V235.67Zm20.24,0v6.26h10.16v27.65h7.46V241.93H329v-6.26Zm31.68,0v33.91h7.45V255h13.73v14.63h7.46V235.67h-7.46v13H340.34v-13Z" transform="translate(-110 -169)"/><path class="cls-5" d="M218.13,287.56a4,4,0,0,0,.64.17c.22,0,.44.08.66.11l.54,0a5.73,5.73,0,0,0,1.26-.13,3.09,3.09,0,0,0,1.05-.43,2.15,2.15,0,0,0,1-1.94,2.1,2.1,0,0,0-.19-.92,2.52,2.52,0,0,0-.54-.73,4,4,0,0,0-.78-.6,10.64,10.64,0,0,0-.95-.52l-.85-.44a3.55,3.55,0,0,1-.64-.42,1.55,1.55,0,0,1-.39-.47,1.31,1.31,0,0,1-.13-.61A1.21,1.21,0,0,1,219,280a1.49,1.49,0,0,1,.46-.44,2.06,2.06,0,0,1,.63-.24,3.49,3.49,0,0,1,.71-.07,3.66,3.66,0,0,1,2.12.57V278.6a4.55,4.55,0,0,0-2-.33,4.73,4.73,0,0,0-1.19.15,3.21,3.21,0,0,0-1,.46,2.34,2.34,0,0,0-.73.77,2.07,2.07,0,0,0-.28,1.1,2.14,2.14,0,0,0,.18.91,2.49,2.49,0,0,0,.49.69,3.49,3.49,0,0,0,.73.55c.28.17.58.34.91.5l.85.45a3.73,3.73,0,0,1,.69.44,1.79,1.79,0,0,1,.46.5,1.29,1.29,0,0,1,.16.66,1.26,1.26,0,0,1-.49,1.07,2.48,2.48,0,0,1-1.5.37,3.61,3.61,0,0,1-.63-.06,4.3,4.3,0,0,1-.69-.16,5.18,5.18,0,0,1-.65-.26,2.62,2.62,0,0,1-.52-.35v1.28a1.8,1.8,0,0,0,.48.22Zm13.79-9.13h-1.09v5.7c0,1.84-.77,2.76-2.32,2.76s-2.41-.95-2.41-2.85v-5.61H225v5.68q0,3.76,3.38,3.76t3.53-3.91v-5.53Zm4.63,5.78a3.5,3.5,0,0,0,2.46-.85,2.83,2.83,0,0,0,.91-2.16,2.63,2.63,0,0,0-.82-2.05,3.4,3.4,0,0,0-2.31-.72h-2.55v9.29h1.09v-3.51Zm0-4.8c1.45,0,2.18.62,2.18,1.84a1.85,1.85,0,0,1-.59,1.46,2.58,2.58,0,0,1-1.72.51h-1.14v-3.81Zm10,7.32h-3.84v-3.25h3.36v-1h-3.36v-3.09h3.63v-1h-4.71v9.29h4.92v-1Zm6.7-1.81c-.12-.2-.24-.38-.34-.53a3.38,3.38,0,0,0-.31-.41,2.42,2.42,0,0,0-.32-.32,2.6,2.6,0,0,0-.41-.23v0a3.43,3.43,0,0,0,.85-.34,2.46,2.46,0,0,0,.65-.54,2.53,2.53,0,0,0,.42-.73,2.77,2.77,0,0,0,.14-.89,2.6,2.6,0,0,0-.21-1.08,2.21,2.21,0,0,0-.6-.78,2.59,2.59,0,0,0-.89-.46,4,4,0,0,0-1.12-.15h-2.77v9.29h1.08v-4h.9a1.8,1.8,0,0,1,.54.08,1.35,1.35,0,0,1,.46.24,2,2,0,0,1,.41.41,6.06,6.06,0,0,1,.41.62l1.56,2.61H255l-1.74-2.8ZM251,279.41a2.07,2.07,0,0,1,1.4.42,1.47,1.47,0,0,1,.48,1.16,2,2,0,0,1-.14.75,1.63,1.63,0,0,1-.4.56,1.51,1.51,0,0,1-.6.36,2.27,2.27,0,0,1-.75.12h-1.48v-3.37Zm9,8.15a4,4,0,0,0,.64.17c.22,0,.44.08.66.11l.54,0a5.73,5.73,0,0,0,1.26-.13,3.09,3.09,0,0,0,1.05-.43,2.18,2.18,0,0,0,.73-.78,2.29,2.29,0,0,0,.27-1.16,2.11,2.11,0,0,0-.2-.92,2.52,2.52,0,0,0-.54-.73,4,4,0,0,0-.78-.6,10.64,10.64,0,0,0-.95-.52l-.85-.44a3.13,3.13,0,0,1-.63-.42,1.46,1.46,0,0,1-.4-.47,1.44,1.44,0,0,1-.13-.61,1.21,1.21,0,0,1,.17-.65,1.49,1.49,0,0,1,.46-.44,2.06,2.06,0,0,1,.63-.24,3.51,3.51,0,0,1,.72-.07,3.62,3.62,0,0,1,2.11.57V278.6a4.55,4.55,0,0,0-2-.33,4.73,4.73,0,0,0-1.19.15,3.21,3.21,0,0,0-1,.46,2.44,2.44,0,0,0-.73.77,2.07,2.07,0,0,0-.28,1.1,2.14,2.14,0,0,0,.18.91,2.49,2.49,0,0,0,.49.69,3.77,3.77,0,0,0,.73.55c.28.17.58.34.91.5l.85.45a3.73,3.73,0,0,1,.69.44,1.79,1.79,0,0,1,.46.5,1.3,1.3,0,0,1,.17.66,1.27,1.27,0,0,1-.5,1.07,2.48,2.48,0,0,1-1.5.37,3.7,3.7,0,0,1-.63-.06,4.3,4.3,0,0,1-.69-.16,4.51,4.51,0,0,1-.64-.26,2.44,2.44,0,0,1-.53-.35v1.28a1.8,1.8,0,0,0,.48.22Zm9.31-3.35a3.5,3.5,0,0,0,2.46-.85,2.83,2.83,0,0,0,.91-2.16,2.63,2.63,0,0,0-.82-2.05,3.4,3.4,0,0,0-2.31-.72H267v9.29h1.08v-3.51Zm.05-4.8c1.45,0,2.18.62,2.18,1.84a1.85,1.85,0,0,1-.59,1.46,2.58,2.58,0,0,1-1.72.51h-1.15v-3.81Zm10,7.32H275.5v-3.25h3.36v-1H275.5v-3.09h3.63v-1h-4.71v9.29h4.92v-1Zm8.11-.46a4.55,4.55,0,0,1-2.43.62,3.17,3.17,0,0,1-2.44-1,3.9,3.9,0,0,1-.92-2.71,4,4,0,0,1,1-2.85,3.35,3.35,0,0,1,2.59-1.07,4.47,4.47,0,0,1,2.21.55v-1.15a5.37,5.37,0,0,0-2.19-.39,4.52,4.52,0,0,0-3.4,1.38,4.89,4.89,0,0,0-1.34,3.6,4.66,4.66,0,0,0,1.19,3.34,4.09,4.09,0,0,0,3.17,1.28,5.52,5.52,0,0,0,2.57-.54v-1.06Zm1-7.84v.93h.91v7.42h-.91v.94h2.9v-.94h-.91v-7.42h.91v-.93Zm8.05,0h-1.13l-3.56,9.29H293l.93-2.61h3.94l1,2.61h1.2l-3.57-9.29Zm-2.19,5.7,1.44-3.95a3,3,0,0,0,.15-.62h0a4,4,0,0,0,.14.62l1.46,3.95Zm11.95,2.6h-3.73v-8.3h-1.09v9.29h4.82v-1Zm.52-8.3v.93h.9v7.42h-.9v.94h2.9v-.94h-.91v-7.42h.91v-.93Zm9.92,0h-6.44v1h2.68v8.31H314v-8.31h2.68v-1Zm6.34,0-2.17,4.2a4,4,0,0,0-.25.57h0c-.12-.33-.2-.52-.22-.57l-2.08-4.2H317l3,5.88v3.41h1.08v-3.44l3.07-5.85Zm13.07,0H335v4.07h-4.81v-4.07H329.1v9.29h1.09v-4.24H335v4.24h1.09v-9.29Zm9.4,8.12a5.14,5.14,0,0,0,1.2-3.59,4.85,4.85,0,0,0-1.17-3.39,4,4,0,0,0-3.1-1.3,4.24,4.24,0,0,0-3.3,1.34,5.14,5.14,0,0,0-1.21,3.57,4.85,4.85,0,0,0,1.19,3.39,4.07,4.07,0,0,0,3.16,1.3,4.16,4.16,0,0,0,3.23-1.32Zm-.79-6.29a4.26,4.26,0,0,1,.85,2.84,4.09,4.09,0,0,1-.88,2.8,3.05,3.05,0,0,1-2.41,1,2.93,2.93,0,0,1-2.32-1,4.15,4.15,0,0,1-.89-2.77,4.1,4.1,0,0,1,.92-2.77,3,3,0,0,1,2.37-1.05,2.93,2.93,0,0,1,2.36,1Zm3.87,7.3a4,4,0,0,0,.64.17c.22,0,.44.08.66.11l.54,0a5.73,5.73,0,0,0,1.26-.13,3.09,3.09,0,0,0,1.05-.43,2.27,2.27,0,0,0,.73-.78,2.4,2.4,0,0,0,.26-1.16,2.1,2.1,0,0,0-.19-.92,2.52,2.52,0,0,0-.54-.73,4,4,0,0,0-.78-.6,10.64,10.64,0,0,0-.95-.52l-.86-.44a3.83,3.83,0,0,1-.63-.42,1.55,1.55,0,0,1-.39-.47,1.31,1.31,0,0,1-.13-.61,1.21,1.21,0,0,1,.17-.65,1.49,1.49,0,0,1,.46-.44,2.06,2.06,0,0,1,.63-.24,3.51,3.51,0,0,1,.72-.07,3.65,3.65,0,0,1,2.11.57V278.6a4.57,4.57,0,0,0-2-.33,4.71,4.71,0,0,0-1.18.15,3.21,3.21,0,0,0-1,.46,2.34,2.34,0,0,0-.73.77,2.07,2.07,0,0,0-.28,1.1,2.14,2.14,0,0,0,.18.91,2.49,2.49,0,0,0,.49.69,3.49,3.49,0,0,0,.73.55c.28.17.58.34.9.5l.86.45a3.73,3.73,0,0,1,.69.44,1.79,1.79,0,0,1,.46.5,1.3,1.3,0,0,1,.17.66,1.27,1.27,0,0,1-.5,1.07,2.48,2.48,0,0,1-1.5.37,3.61,3.61,0,0,1-.63-.06,4.3,4.3,0,0,1-.69-.16,4.51,4.51,0,0,1-.64-.26,2.44,2.44,0,0,1-.53-.35v1.28a1.8,1.8,0,0,0,.48.22Zm9.31-3.35a3.5,3.5,0,0,0,2.46-.85,2.83,2.83,0,0,0,.91-2.16,2.63,2.63,0,0,0-.82-2.05,3.4,3.4,0,0,0-2.31-.72h-2.55v9.29h1.08v-3.51Zm.05-4.8c1.45,0,2.18.62,2.18,1.84a1.83,1.83,0,0,1-.6,1.46,2.54,2.54,0,0,1-1.72.51h-1.14v-3.81Zm4.16-1v.93H363v7.42h-.91v.94H365v-.94h-.91v-7.42H365v-.93Zm9.93,0h-6.45v1h2.68v8.31h1.09v-8.31H372v-1Zm5.07,0H376l-3.56,9.29h1.21l.93-2.61h3.93l1,2.61h1.2l-3.57-9.29Zm-2.19,5.7,1.44-3.95a3,3,0,0,0,.15-.62h0a3.06,3.06,0,0,0,.14.62l1.46,3.95Zm12,2.6h-3.73v-8.3H382v9.29h4.82v-1Zm1.47.83a4,4,0,0,0,.64.17c.22,0,.44.08.66.11l.54,0a5.73,5.73,0,0,0,1.26-.13,3.09,3.09,0,0,0,1.05-.43,2.15,2.15,0,0,0,1-1.94,2.1,2.1,0,0,0-.19-.92,2.52,2.52,0,0,0-.54-.73,4,4,0,0,0-.78-.6,10.64,10.64,0,0,0-.95-.52l-.86-.44a3.83,3.83,0,0,1-.63-.42,1.55,1.55,0,0,1-.39-.47,1.31,1.31,0,0,1-.13-.61,1.21,1.21,0,0,1,.17-.65,1.49,1.49,0,0,1,.46-.44,2.06,2.06,0,0,1,.63-.24,3.51,3.51,0,0,1,.72-.07,3.65,3.65,0,0,1,2.11.57V278.6a4.57,4.57,0,0,0-2-.33,4.71,4.71,0,0,0-1.18.15,3.21,3.21,0,0,0-1,.46,2.34,2.34,0,0,0-.73.77,2.07,2.07,0,0,0-.28,1.1,2.14,2.14,0,0,0,.18.91,2.49,2.49,0,0,0,.49.69,3.49,3.49,0,0,0,.73.55c.28.17.58.34.9.5l.86.45a3.73,3.73,0,0,1,.69.44,1.79,1.79,0,0,1,.46.5,1.29,1.29,0,0,1,.16.66,1.26,1.26,0,0,1-.49,1.07,2.48,2.48,0,0,1-1.5.37,3.61,3.61,0,0,1-.63-.06,4.3,4.3,0,0,1-.69-.16,5.18,5.18,0,0,1-.65-.26,2.62,2.62,0,0,1-.52-.35v1.28a1.8,1.8,0,0,0,.48.22Z" transform="translate(-110 -169)"/><path class="cls-3" d="M393.46,269.58v-5.81c-6.45,0-6.45-2.59-6.45-2.59V228.25C382.27,240.52,374.52,242,374.52,242v19.15c0,2.59-6.67,2.59-6.67,2.59v5.81Z" transform="translate(-110 -169)"/><path class="cls-1" d="M385.5,221.32s-1.94,12.83-11,19v-8.23s.17-3-3.44-3H366.6V224l18.9-2.67Z" transform="translate(-110 -169)"/></svg>